<svg width="180" height="81" viewBox="0 0 180 81" fill="none" xmlns="http://www.w3.org/2000/svg">
<path fill-rule="evenodd" clip-rule="evenodd" d="M0 30.9872V80.2779L180 49.4728V0L0 30.9872Z" fill="black"/>
<path d="M157.32 24.0635L161.504 13.8926L171.64 12.1376L161.908 30.8574V41.8102L160.451 42.0697L130.87 47.1851V19.1941L139.998 17.6105V38.1035L152.738 35.8953V32.4439L143.041 17.0876L153.184 15.3316L157.32 24.0635Z" fill="white"/>
<path d="M118.836 31.8474C118.836 33.8758 119.039 36.8855 119.039 36.8855L110.924 22.6672L100.984 24.3877V52.3839L109.91 50.8391V40.2902C109.91 38.2632 109.709 35.2534 109.709 35.2534L118.229 49.398L127.76 47.7489V19.7548L118.836 21.2967V31.8474Z" fill="white"/>
<path fill-rule="evenodd" clip-rule="evenodd" d="M88.7053 26.5226L89.5919 26.37L89.5914 26.3654V26.3612L97.875 24.9319V52.9344L88.7048 54.5233V54.5195L80.09 56.0106L78.9938 52.264L71 53.644L69.944 57.7637L60.4101 59.4086L53.3114 60.6439L48.8474 52.0822L47.669 52.2875V61.6182L38.5001 63.2066V35.2103L50.6723 33.101C54.1197 32.5099 56.7567 32.6562 58.7891 33.727C60.8168 34.7976 62.2348 36.9864 62.2348 40.0299C62.2348 45.6764 58.8269 48.3076 57.5917 49.2614L57.5713 49.2771L61.6858 55.5202L70.1468 29.7341L80.2919 27.9772L88.7053 50.72V26.5226ZM49.9452 44.9941C50.958 44.8219 51.6083 44.5077 51.9719 44.1544L51.9727 44.1539C52.4163 43.7584 52.987 43.2496 52.987 42.0386C52.987 40.832 52.3964 40.5245 51.9896 40.3127L51.9719 40.3035C51.5675 40.0475 50.958 39.9533 49.9452 40.13L47.6316 40.5255V45.3964L49.9452 44.9941ZM72.9481 46.2872L75.0152 38.426L77.0869 45.5722L72.9469 46.288L72.9481 46.2872Z" fill="white"/>
<path fill-rule="evenodd" clip-rule="evenodd" d="M35.3359 42.8588C35.3359 46.1049 33.227 48.7025 31.3996 49.747L31.3979 49.7495C34.6442 50.0802 36.7602 52.1502 36.7602 55.3965C36.7602 58.6411 35.4565 60.6937 33.6293 62.2216C31.8062 63.7585 28.9677 64.8561 26.3298 65.3088L9.88538 68.1392V61.5246L12.5339 61.0842V46.3184L9.88538 46.7592V40.1454L24.0976 37.702C26.5324 37.2861 29.1701 37.03 31.1972 37.49C33.227 37.9499 35.3359 39.61 35.3359 42.8588ZM23.4892 44.4215L21.6628 44.7384V48.7942L23.4892 48.4809C24.5054 48.3051 24.9101 48.1941 25.5175 47.6864C26.1262 47.1696 26.3298 46.6493 26.3298 45.9615C26.3298 45.2319 26.1262 44.7783 25.5175 44.4786C24.9123 44.177 24.5082 44.2464 23.4997 44.4197L23.4892 44.4215ZM26.7363 57.9391C26.1266 58.4502 25.7218 58.6438 24.708 58.8183L21.6634 59.3428V54.8816L24.708 54.3587C25.7218 54.18 26.1268 54.1907 26.7363 54.4904C27.3424 54.7884 27.5474 55.3663 27.5474 56.0943C27.5474 56.7787 27.3422 57.4233 26.7353 57.9382L26.7363 57.9391Z" fill="white"/>
</svg>
